# Wavefront OBJ file
# Exported by Misfit Model 3D 1.3.8
# Tue Mar 04 13:38:04 2014

# 8 Vertices
v -0.47615 0.499707 0.224778
v -0.47615 -0.500293 0.224778
v 0.523849 0.499707 0.225521
v 0.52385 -0.500293 0.225521
v -0.502152 0.499706 35.224768
v 0.497848 0.499706 35.225511
v -0.502152 -0.500294 35.224768
v 0.497848 -0.500294 35.225511

# 36 Texture Coordinates
vt 3976.0 4105.0
vt 3968.0 4097.0
vt 3968.0 4105.0
vt 3976.0 4105.0
vt 3976.0 4097.0
vt 3968.0 4097.0
vt 3968.0 4097.0
vt 3976.0 4105.0
vt 3968.0 4105.0
vt 3968.0 4097.0
vt 3976.0 4097.0
vt 3976.0 4105.0
vt 4464.0 4105.0
vt 4184.0 4097.0
vt 4464.0 4097.0
vt 4464.0 4105.0
vt 4184.0 4105.0
vt 4184.0 4097.0
vt 4184.0 4105.0
vt 4464.0 4097.0
vt 4184.0 4097.0
vt 4184.0 4105.0
vt 4464.0 4105.0
vt 4464.0 4097.0
vt 3976.0 -4183.0
vt 3968.0 -4463.0
vt 3968.0 -4183.0
vt 3976.0 -4183.0
vt 3976.0 -4463.0
vt 3968.0 -4463.0
vt 3976.0 -4463.0
vt 3968.0 -4183.0
vt 3968.0 -4463.0
vt 3976.0 -4463.0
vt 3976.0 -4183.0
vt 3968.0 -4183.0

# 36 Vertex Normals
vn 0.000743 0.0 -1.0
vn 0.000743 0.0 -1.0
vn 0.000743 0.0 -1.0
vn 0.000743 0.0 -1.0
vn 0.000743 0.0 -1.0
vn 0.000743 0.0 -1.0
vn -0.00074 0.000001 1.0
vn -0.00074 0.000001 1.0
vn -0.00074 0.000002 1.0
vn -0.00074 0.000001 1.0
vn -0.00074 0.000001 1.0
vn -0.00074 0.000001 1.0
vn -1.0 -0.0 -0.000743
vn -1.0 -0.0 -0.000743
vn -1.0 0.0 -0.000743
vn -1.0 -0.0 -0.000743
vn -1.0 -0.0 -0.000743
vn -1.0 -0.0 -0.000743
vn 1.0 0.0 0.000743
vn 1.0 0.0 0.000743
vn 1.0 -0.0 0.000743
vn 1.0 0.0 0.000743
vn 1.0 0.0 0.000743
vn 1.0 0.0 0.000743
vn -0.0 -1.0 -0.0
vn -0.0 -1.0 -0.0
vn 0.0 -1.0 -0.0
vn -0.0 -1.0 -0.0
vn -0.0 -1.0 -0.0
vn -0.0 -1.0 -0.0
vn -0.0 1.0 0.0
vn -0.0 1.0 0.0
vn 0.0 1.0 0.0
vn -0.0 1.0 0.0
vn -0.0 1.0 0.0
vn -0.0 1.0 0.0

# slot79, 12 grouped triangles

o slot79
g slot79

f 3/1/1 2/2/2 1/3/3
f 3/4/4 4/5/5 2/6/6
f 7/7/7 6/8/8 5/9/9
f 7/10/10 8/11/11 6/12/12
f 5/13/13 2/14/14 7/15/15
f 5/16/16 1/17/17 2/18/18
f 3/19/19 8/20/20 4/21/21
f 3/22/22 6/23/23 8/24/24
f 4/25/25 7/26/26 2/27/27
f 4/28/28 8/29/29 7/30/30
f 6/31/31 1/32/32 5/33/33
f 6/34/34 3/35/35 1/36/36
